<?xml version="1.0" encoding="UTF-8"?>
<svg width="97px" height="77px" viewBox="0 0 97 77" version="1.1" xmlns="http://www.w3.org/2000/svg" xmlns:xlink="http://www.w3.org/1999/xlink">
    <!-- Generator: Sketch 48.2 (47327) - http://www.bohemiancoding.com/sketch -->
    <title>logo_export</title>
    <desc>Created with Sketch.</desc>
    <defs></defs>
    <g id="Symbols" stroke="none" stroke-width="1" fill="none" fill-rule="evenodd">
        <g id="logo_export" fill="#FFFFFF">
            <g id="Group">
                <path d="M93,37 L87,37 L87,31 C87,27.6862915 84.3137085,25 81,25 L8,25 C4.6862915,25 2,27.6862915 2,31 L2,72 C2,73.6568542 3.34314575,75 5,75 L7,75 C8.65685425,75 10,73.6568542 10,72 L10,68 L79,68 L79,72 C79,73.6568542 80.3431458,75 82,75 L84,75 C85.6568542,75 87,73.6568542 87,72 L87,41 L93,41 C94.1045695,41 95,40.1045695 95,39 C95,37.8954305 94.1045695,37 93,37 Z M77,70 L12,70 L12,72 C12,74.7614237 9.76142375,77 7,77 L5,77 C2.23857625,77 3.38176876e-16,74.7614237 0,72 L0,31 C-5.41083001e-16,26.581722 3.581722,23 8,23 L81,23 C85.418278,23 89,26.581722 89,31 L89,35 L93,35 C95.209139,35 97,36.790861 97,39 C97,41.209139 95.209139,43 93,43 L89,43 L89,72 C89,74.7614237 86.7614237,77 84,77 L82,77 C79.2385763,77 77,74.7614237 77,72 L77,70 Z" id="Combined-Shape" fill-rule="nonzero"></path>
                <path d="M64.9970187,9.80842344 L64.9664277,8.82722901 L65.7239218,8.20282452 C66.5277329,7.54024082 67,6.560865 67,5.5 C67,3.56700338 65.4329966,2 63.5,2 L23.5,2 C21.5670034,2 20,3.56700338 20,5.5 C20,6.560865 20.4722671,7.54024082 21.2760782,8.20282452 L22.0335723,8.82722901 L22.0029813,9.80842344 C22.0009954,9.87212151 22,9.93598439 22,10 L22,31 C22,34.3137085 24.6862915,37 28,37 L59,37 C62.3137085,37 65,34.3137085 65,31 L65,10 C65,9.93598439 64.9990046,9.87212151 64.9970187,9.80842344 Z M67,10 L67,31 C67,35.418278 63.418278,39 59,39 L28,39 C23.581722,39 20,35.418278 20,31 L20,10 C20,9.91505063 20.0013241,9.83041051 20.0039527,9.74609915 C18.7801763,8.73733696 18,7.20977845 18,5.5 C18,2.46243388 20.4624339,5.57991845e-16 23.5,0 L63.5,0 C66.5375661,-5.57991845e-16 69,2.46243388 69,5.5 C69,7.20977845 68.2198237,8.73733696 66.9960473,9.74609915 C66.9986759,9.83041051 67,9.91505063 67,10 Z" id="Combined-Shape" fill-rule="nonzero"></path>
                <circle id="Oval" cx="23" cy="53" r="3"></circle>
                <circle id="Oval-Copy" cx="64" cy="53" r="3"></circle>
                <path d="M38.0396912,54.08044 C38.0396912,53.5281552 38.4874064,53.08044 39.0396912,53.08044 C39.5919759,53.08044 40.0396912,53.5281552 40.0396912,54.08044 C40.0396912,56.0848503 41.6645868,57.709746 43.6689972,57.709746 C45.6734075,57.709746 47.2983032,56.0848503 47.2983032,54.08044 C47.2983032,53.5281552 47.7460184,53.08044 48.2983032,53.08044 C48.8505879,53.08044 49.2983032,53.5281552 49.2983032,54.08044 C49.2983032,57.1894198 46.777977,59.709746 43.6689972,59.709746 C40.5600173,59.709746 38.0396912,57.1894198 38.0396912,54.08044 Z" id="Oval-2" fill-rule="nonzero"></path>
                <path d="M35.7744141,17 L34.4560547,17 L31.8896484,12.7900391 L31.8896484,17 L30.5712891,17 L30.5712891,10.6015625 L31.8896484,10.6015625 L34.4604492,14.8203125 L34.4604492,10.6015625 L35.7744141,10.6015625 L35.7744141,17 Z M41.8039621,14.2270508 L39.2727121,14.2270508 L39.2727121,15.940918 L42.2434152,15.940918 L42.2434152,17 L37.9543527,17 L37.9543527,10.6015625 L42.2346262,10.6015625 L42.2346262,11.6694336 L39.2727121,11.6694336 L39.2727121,13.1943359 L41.8039621,13.1943359 L41.8039621,14.2270508 Z M49.0288227,15.1542969 L49.8901508,10.6015625 L51.2041156,10.6015625 L49.784682,17 L48.4575336,17 L47.4160297,12.7197266 L46.3745258,17 L45.0473773,17 L43.6279438,10.6015625 L44.9419086,10.6015625 L45.8076313,15.1455078 L46.8623188,10.6015625 L47.9785297,10.6015625 L49.0288227,15.1542969 Z M56.2624723,15.3212891 C56.2624723,15.0722644 56.1745825,14.8811042 55.9988004,14.7478027 C55.8230183,14.6145013 55.5066152,14.4738777 55.0495816,14.3259277 C54.5925481,14.1779778 54.2307353,14.0322273 53.9641324,13.8886719 C53.2375663,13.4960918 52.8742887,12.9672885 52.8742887,12.3022461 C52.8742887,11.9565412 52.9716998,11.6481947 53.166525,11.3771973 C53.3613502,11.1061998 53.6411326,10.894532 54.0058805,10.7421875 C54.3706284,10.589843 54.7800481,10.5136719 55.234152,10.5136719 C55.6911855,10.5136719 56.098408,10.5964347 56.4558316,10.7619629 C56.8132553,10.9274911 57.0908404,11.1611313 57.2885953,11.4628906 C57.4863502,11.7646499 57.5852262,12.10742 57.5852262,12.4912109 L56.2668668,12.4912109 C56.2668668,12.1982407 56.1745826,11.9704598 55.9900113,11.8078613 C55.8054401,11.6452629 55.5461653,11.5639648 55.2121793,11.5639648 C54.8899121,11.5639648 54.6394263,11.6320794 54.4607145,11.7683105 C54.2820026,11.9045417 54.1926481,12.0839833 54.1926481,12.3066406 C54.1926481,12.5146495 54.2973833,12.6889641 54.506857,12.8295898 C54.7163307,12.9702155 55.0246773,13.1020502 55.4319059,13.2250977 C56.1819096,13.4506847 56.7282909,13.7304671 57.071066,14.0644531 C57.4138412,14.3984392 57.5852262,14.8144506 57.5852262,15.3125 C57.5852262,15.8662137 57.3757556,16.3005355 56.9568082,16.6154785 C56.5378608,16.9304215 55.9739016,17.0878906 55.2649137,17.0878906 C54.7727237,17.0878906 54.324486,16.9978036 53.9201871,16.817627 C53.5158882,16.6374503 53.2075417,16.3906266 52.9951383,16.0771484 C52.7827349,15.7636703 52.6765348,15.4003927 52.6765348,14.9873047 L53.9992887,14.9873047 C53.9992887,15.6933629 54.4211595,16.0463867 55.2649137,16.0463867 C55.5783918,16.0463867 55.8230183,15.9826667 55.9988004,15.8552246 C56.1745825,15.7277826 56.2624723,15.5498058 56.2624723,15.3212891 Z" id="news"></path>
            </g>
        </g>
    </g>
</svg>